<?xml version="1.0" encoding="UTF-8"?>
<svg id="Layer_1" data-name="Layer 1" xmlns="http://www.w3.org/2000/svg" viewBox="0 0 1920 1080">
  <defs>
    <style>
      .cls-1 {
        fill: #000;
      }

      .cls-1, .cls-2, .cls-3, .cls-4, .cls-5, .cls-6, .cls-7 {
        stroke-width: 0px;
      }

      .cls-2 {
        fill: #004a1e;
      }

      .cls-8 {
        letter-spacing: .01em;
      }

      .cls-3, .cls-9 {
        fill: #007f5f;
      }

      .cls-4 {
        fill: #002435;
      }

      .cls-5, .cls-10 {
        fill: #fff3df;
      }

      .cls-9, .cls-11 {
        stroke: #006837;
      }

      .cls-9, .cls-11, .cls-12 {
        stroke-miterlimit: 10;
      }

      .cls-6 {
        fill: #005f3f;
      }

      .cls-11 {
        stroke-width: 3px;
      }

      .cls-11, .cls-12 {
        fill: none;
      }

      .cls-12 {
        stroke: #000;
        stroke-width: 6px;
      }

      .cls-10 {
        font-family: GillSans-UltraBold, 'Gill Sans Ultra Bold';
        font-size: 100px;
        font-weight: 700;
      }

      .cls-7 {
        fill: #ffa994;
      }
    </style>
  </defs>
  <path class="cls-2" d="M697,837.78c2.75-28.5,6.95-83.86-14.65-102.65-27.67-24.07-57.87-45.22-89.95-63-12.51-6.93-25.43-13.44-36.29-22.76-10.54-9.05-18.79-20.48-26.06-32.32-42.21-68.86-52.79-155.59-31.55-233.51,4.93-18.11,12.13-36.7,26.77-48.44,14.64-11.75,38.59-13.63,50.96.48,7.11,8.11,9.03,19.43,10.15,30.15,4.37,41.61,1.1,83.71,4.78,125.39s15.41,84.68,44.54,114.73c11.67,12.04,25.67,21.52,39.51,30.99,28.55,19.55,57.26,39.83,79.03,66.72,21.77,26.9,36.1,61.66,31.32,95.93"/>
  <polygon class="cls-6" points="1199.65 555 732.35 555 690 926 1242 926 1199.65 555"/>
  <path class="cls-3" d="M884.5,239.5c49.03,51.26-68.13,113-109,113s-196,377-81-120c15.06-65.11,39.13-107,80-107s66,68,110,114Z"/>
  <path class="cls-9" d="M1048.8,239.56c-49.03,51.26,68.13,113,109,113,40.87,0,196,377,81-120-15.06-65.11-39.13-107-80-107-40.87,0-66,68-110,114Z"/>
  <path class="cls-7" d="M742.5,290.5c18.93,16.34,101.33-3.26,99-37-2-29-49.79-86.63-75-83-29.67,4.27-50.12,97.45-24,120Z"/>
  <path class="cls-7" d="M1187.9,290.04c-18.93,16.34-101.33-3.26-99-37,2-29,49.79-86.63,75-83,29.67,4.27,50.12,97.45,24,120Z"/>
  <path class="cls-3" d="M1281.5,496.5c-3.5,150.5-113.56,237-307,237s-323-90.46-323-244,124.24-262,317.68-262,315.89,115.51,312.32,269Z"/>
  <line class="cls-11" x1="724.5" y1="449.5" x2="561.5" y2="468.5"/>
  <line class="cls-11" x1="732.5" y1="516.5" x2="578.5" y2="563.5"/>
  <line class="cls-11" x1="752.5" y1="560.5" x2="631.5" y2="631.5"/>
  <line class="cls-11" x1="1195.86" y1="443.42" x2="1358.86" y2="462.42"/>
  <line class="cls-11" x1="1187.86" y1="510.42" x2="1341.86" y2="557.42"/>
  <line class="cls-11" x1="1167.86" y1="554.42" x2="1288.86" y2="625.42"/>
  <path class="cls-12" d="M836,469c8.89,31.83,47.35,50.42,79.79,45.1,23.11-3.79,41.94-19.51,48.21-39.46"/>
  <path class="cls-12" d="M1094.26,468.7c-8.89,31.83-47.35,50.42-79.79,45.1-23.11-3.79-41.94-19.51-48.21-39.46"/>
  <path class="cls-7" d="M1018,459c-18,7-23.06,20-51.5,20s-32.5-15-51.5-20c-10.68-2.81,23.06-20,51.5-20s61.79,16,51.5,20Z"/>
  <ellipse class="cls-5" cx="842" cy="379" rx="27" ry="46"/>
  <path class="cls-1" d="M842,379h27c0,25.23-12.19,46-27,46s-27-20.77-27-46,12.19-46,27-46c8.66,0,16.81,7.1,21.89,19.06l-21.89,26.94Z"/>
  <polygon class="cls-4" points="1312.31 1143 620.69 1143 558 772 1375 772 1312.31 1143"/>
  <path class="cls-3" d="M775,751c-69.04,0-125,26.64-125,59.5,0,17.11,15.18,32.53,39.47,43.39,2.77,1.24,6,.79,8.39-1.09.71-.56,8.52-8.06,9.14-8.79,11-13,8.28-19.61,14-19,4.59.49,4.8,9.85,12,25,3.83,8.06,7.69,13.65,10.86,17.75,2.52.39,3.74.64,2.48.68,16.05,1.22,26.2,1.57,28.66,1.57,2.18,0,10.38-.28,23.35-1.18,3.06-4.03,6.69-9.42,10.3-17.01,7.2-15.15,7.41-24.51,12-25,5.72-.61,7.13,13.73,21,26,1.3,1.15,2.6,2.19,3.88,3.11,2.21,1.6,5.07,2,7.62,1.03.01,0,.03,0,.04-.01,28.54-10.9,46.82-27.65,46.82-46.43,0-32.86-55.96-59.5-125-59.5Z"/>
  <ellipse class="cls-3" cx="771.5" cy="857" rx="30.5" ry="26"/>
  <path class="cls-3" d="M1159,758c-69.04,0-125,26.64-125,59.5,0,17.11,15.18,32.53,39.47,43.39,2.77,1.24,6,.79,8.39-1.09.71-.56,8.52-8.06,9.14-8.79,11-13,8.28-19.61,14-19,4.59.49,4.8,9.85,12,25,3.83,8.06,7.69,13.65,10.86,17.75,2.52.39,3.74.64,2.48.68,16.05,1.22,26.2,1.57,28.66,1.57,2.18,0,10.38-.28,23.35-1.18,3.06-4.03,6.69-9.42,10.3-17.01,7.2-15.15,7.41-24.51,12-25,5.72-.61,7.13,13.73,21,26,1.3,1.15,2.6,2.19,3.88,3.11,2.21,1.6,5.07,2,7.62,1.03.01,0,.03,0,.04-.01,28.54-10.9,46.82-27.65,46.82-46.43,0-32.86-55.96-59.5-125-59.5Z"/>
  <ellipse class="cls-3" cx="1155.5" cy="864" rx="30.5" ry="26"/>
  <ellipse class="cls-5" cx="1085.25" cy="379.5" rx="27" ry="46"/>
  <path class="cls-1" d="M1085.25,379.5h27c0,25.23-12.19,46-27,46s-27-20.77-27-46,12.19-46,27-46c8.66,0,16.81,7.1,21.89,19.06l-21.89,26.94Z"/>
  <text class="cls-10" transform="translate(664.5 988.5)"><tspan class="cls-8" x="0" y="0">litter</tspan><tspan x="341.52" y="0"> </tspan><tspan class="cls-8" x="374.82" y="0">bug</tspan></text>
</svg>