<?xml version="1.0" encoding="UTF-8"?>
<svg id="Layer_2" data-name="Layer 2" xmlns="http://www.w3.org/2000/svg" viewBox="0 0 887.13 1017.94">
  <defs>
    <style>
      .cls-1 {
        fill: #000;
      }

      .cls-1, .cls-2, .cls-3, .cls-4, .cls-5, .cls-6, .cls-7 {
        stroke-width: 0px;
      }

      .cls-2 {
        fill: #004a1e;
      }

      .cls-8 {
        letter-spacing: .01em;
      }

      .cls-3, .cls-9 {
        fill: #007f5f;
      }

      .cls-4 {
        fill: #002435;
      }

      .cls-5, .cls-10 {
        fill: #fff3df;
      }

      .cls-9, .cls-11 {
        stroke: #006837;
      }

      .cls-9, .cls-11, .cls-12 {
        stroke-miterlimit: 10;
      }

      .cls-6 {
        fill: #005f3f;
      }

      .cls-11 {
        stroke-width: 3px;
      }

      .cls-11, .cls-12 {
        fill: none;
      }

      .cls-12 {
        stroke: #000;
        stroke-width: 6px;
      }

      .cls-10 {
        font-family: GillSans-UltraBold, 'Gill Sans Ultra Bold';
        font-size: 100px;
        font-weight: 700;
      }

      .cls-7 {
        fill: #ffa994;
      }
    </style>
  </defs>
  <g id="Layer_1-2" data-name="Layer 1">
    <path class="cls-2" d="M209.13,712.72c2.75-28.5,6.95-83.86-14.65-102.65-27.67-24.07-57.87-45.22-89.95-63-12.51-6.93-25.43-13.44-36.29-22.76-10.54-9.05-18.79-20.48-26.06-32.32C-.02,423.14-10.6,336.41,10.64,258.48c4.93-18.11,12.13-36.7,26.77-48.44,14.64-11.75,38.59-13.63,50.96.48,7.11,8.11,9.03,19.43,10.15,30.15,4.37,41.61,1.1,83.71,4.78,125.39s15.41,84.68,44.54,114.73c11.67,12.04,25.67,21.52,39.51,30.99,28.55,19.55,57.26,39.83,79.03,66.72,21.77,26.9,36.1,61.66,31.32,95.93"/>
    <polygon class="cls-6" points="711.77 429.94 244.48 429.94 202.13 800.94 754.13 800.94 711.77 429.94"/>
    <path class="cls-3" d="M396.63,114.44c49.03,51.26-68.13,113-109,113s-196,377-81-120C221.69,42.33,245.76.44,286.63.44s66,68,110,114Z"/>
    <path class="cls-9" d="M560.93,114.5c-49.03,51.26,68.13,113,109,113,40.87,0,196,377,81-120C735.86,42.39,711.79.5,670.93.5c-40.87,0-66,68-110,114Z"/>
    <path class="cls-7" d="M254.63,165.44c18.93,16.34,101.33-3.26,99-37-2-29-49.79-86.63-75-83-29.67,4.27-50.12,97.45-24,120Z"/>
    <path class="cls-7" d="M700.03,164.98c-18.93,16.34-101.33-3.26-99-37,2-29,49.79-86.63,75-83,29.67,4.27,50.12,97.45,24,120Z"/>
    <path class="cls-3" d="M793.63,371.44c-3.5,150.5-113.56,237-307,237s-323-90.46-323-244S287.87,102.44,481.31,102.44s315.89,115.51,312.32,269Z"/>
    <line class="cls-11" x1="236.63" y1="324.44" x2="73.63" y2="343.44"/>
    <line class="cls-11" x1="244.63" y1="391.44" x2="90.63" y2="438.44"/>
    <line class="cls-11" x1="264.63" y1="435.44" x2="143.63" y2="506.44"/>
    <line class="cls-11" x1="707.98" y1="318.36" x2="870.98" y2="337.36"/>
    <line class="cls-11" x1="699.98" y1="385.36" x2="853.98" y2="432.36"/>
    <line class="cls-11" x1="679.98" y1="429.36" x2="800.98" y2="500.36"/>
    <path class="cls-12" d="M348.13,343.94c8.89,31.83,47.35,50.42,79.79,45.1,23.11-3.79,41.94-19.51,48.21-39.46"/>
    <path class="cls-12" d="M606.39,343.63c-8.89,31.83-47.35,50.42-79.79,45.1-23.11-3.79-41.94-19.51-48.21-39.46"/>
    <path class="cls-7" d="M530.13,333.94c-18,7-23.06,20-51.5,20s-32.5-15-51.5-20c-10.68-2.81,23.06-20,51.5-20s61.79,16,51.5,20Z"/>
    <ellipse class="cls-5" cx="354.13" cy="253.94" rx="27" ry="46"/>
    <path class="cls-1" d="M354.13,253.94h27c0,25.23-12.19,46-27,46s-27-20.77-27-46,12.19-46,27-46c8.66,0,16.81,7.1,21.89,19.06l-21.89,26.94Z"/>
    <polygon class="cls-4" points="824.44 1017.94 132.82 1017.94 70.13 646.94 887.13 646.94 824.44 1017.94"/>
    <path class="cls-3" d="M287.13,625.94c-69.04,0-125,26.64-125,59.5,0,17.11,15.18,32.53,39.47,43.39,2.77,1.24,6,.79,8.39-1.09.71-.56,8.52-8.06,9.14-8.79,11-13,8.28-19.61,14-19,4.59.49,4.8,9.85,12,25,3.83,8.06,7.69,13.65,10.86,17.75,2.52.39,3.74.64,2.48.68,16.05,1.22,26.2,1.57,28.66,1.57,2.18,0,10.38-.28,23.35-1.18,3.06-4.03,6.69-9.42,10.3-17.01,7.2-15.15,7.41-24.51,12-25,5.72-.61,7.13,13.73,21,26,1.3,1.15,2.6,2.19,3.88,3.11,2.21,1.6,5.07,2,7.62,1.03.01,0,.03,0,.04-.01,28.54-10.9,46.82-27.65,46.82-46.43,0-32.86-55.96-59.5-125-59.5Z"/>
    <ellipse class="cls-3" cx="283.63" cy="731.94" rx="30.5" ry="26"/>
    <path class="cls-3" d="M671.13,632.94c-69.04,0-125,26.64-125,59.5,0,17.11,15.18,32.53,39.47,43.39,2.77,1.24,6,.79,8.39-1.09.71-.56,8.52-8.06,9.14-8.79,11-13,8.28-19.61,14-19,4.59.49,4.8,9.85,12,25,3.83,8.06,7.69,13.65,10.86,17.75,2.52.39,3.74.64,2.48.68,16.05,1.22,26.2,1.57,28.66,1.57,2.18,0,10.38-.28,23.35-1.18,3.06-4.03,6.69-9.42,10.3-17.01,7.2-15.15,7.41-24.51,12-25,5.72-.61,7.13,13.73,21,26,1.3,1.15,2.6,2.19,3.88,3.11,2.21,1.6,5.07,2,7.62,1.03.01,0,.03,0,.04-.01,28.54-10.9,46.82-27.65,46.82-46.43,0-32.86-55.96-59.5-125-59.5Z"/>
    <ellipse class="cls-3" cx="667.63" cy="738.94" rx="30.5" ry="26"/>
    <ellipse class="cls-5" cx="597.38" cy="254.44" rx="27" ry="46"/>
    <path class="cls-1" d="M597.38,254.44h27c0,25.23-12.19,46-27,46s-27-20.77-27-46,12.19-46,27-46c8.66,0,16.81,7.1,21.89,19.06l-21.89,26.94Z"/>
    <text class="cls-10" transform="translate(176.63 863.44)"><tspan class="cls-8" x="0" y="0">litter</tspan><tspan x="341.52" y="0"> </tspan><tspan class="cls-8" x="374.82" y="0">bug</tspan></text>
  </g>
</svg>