<?xml version="1.0" encoding="UTF-8"?>
<svg id="Layer_2" data-name="Layer 2" xmlns="http://www.w3.org/2000/svg" viewBox="0 0 318.67 409.74">
  <defs>
    <style>
      .cls-1 {
        fill: #000;
      }

      .cls-1, .cls-2, .cls-3, .cls-4, .cls-5, .cls-6, .cls-7 {
        stroke-width: 0px;
      }

      .cls-2 {
        fill: #004a1e;
      }

      .cls-3, .cls-8 {
        fill: #007f5f;
      }

      .cls-4 {
        fill: #002435;
      }

      .cls-5 {
        fill: #fff3df;
      }

      .cls-8, .cls-9 {
        stroke: #006837;
      }

      .cls-8, .cls-9, .cls-10 {
        stroke-miterlimit: 10;
      }

      .cls-6 {
        fill: #005f3f;
      }

      .cls-9 {
        stroke-width: 3px;
      }

      .cls-9, .cls-10 {
        fill: none;
      }

      .cls-10 {
        stroke: #000;
        stroke-width: 6px;
      }

      .cls-7 {
        fill: #ffa994;
      }
    </style>
  </defs>
  <g id="Layer_1-2" data-name="Layer 1">
    <path class="cls-2" d="M75.12,256.34c.99-10.24,2.5-30.12-5.26-36.87-9.94-8.65-20.79-16.24-32.31-22.63-4.49-2.49-9.14-4.83-13.03-8.17-3.79-3.25-6.75-7.36-9.36-11.61C0,152.32-3.81,121.16,3.82,93.17c1.77-6.5,4.36-13.18,9.62-17.4s13.86-4.9,18.3.17c2.55,2.91,3.24,6.98,3.65,10.83,1.57,14.95.4,30.07,1.72,45.04,1.32,14.97,5.54,30.42,16,41.21,4.19,4.33,9.22,7.73,14.19,11.13,10.26,7.02,20.57,14.31,28.39,23.97,7.82,9.66,12.97,22.15,11.25,34.46"/>
    <polygon class="cls-6" points="255.68 154.76 87.82 154.76 72.61 288.03 270.89 288.03 255.68 154.76"/>
    <path class="cls-3" d="M142.47,41.43c17.61,18.41-24.47,40.59-39.15,40.59s-70.41,135.42-29.1-43.11C79.64,15.53,88.28.48,102.96.48s23.71,24.43,39.51,40.95Z"/>
    <path class="cls-8" d="M201.49,41.45c-17.61,18.41,24.47,40.59,39.15,40.59,14.68,0,70.41,135.42,29.1-43.11-5.41-23.39-14.06-38.44-28.74-38.44-14.68,0-23.71,24.43-39.51,40.95Z"/>
    <path class="cls-7" d="M91.47,59.75c6.8,5.87,36.4-1.17,35.56-13.29-.72-10.42-17.89-31.12-26.94-29.81-10.66,1.53-18,35.01-8.62,43.11Z"/>
    <path class="cls-7" d="M251.46,59.58c-6.8,5.87-36.4-1.17-35.56-13.29.72-10.42,17.89-31.12,26.94-29.81,10.66,1.53,18,35.01,8.62,43.11Z"/>
    <path class="cls-3" d="M285.08,133.75c-1.26,54.06-40.79,85.13-110.28,85.13s-116.03-32.5-116.03-87.65,44.63-94.11,114.11-94.11,113.47,41.49,112.19,96.63Z"/>
    <line class="cls-9" x1="85" y1="116.86" x2="26.45" y2="123.69"/>
    <line class="cls-9" x1="87.87" y1="140.93" x2="32.56" y2="157.81"/>
    <line class="cls-9" x1="95.06" y1="156.74" x2="51.59" y2="182.24"/>
    <line class="cls-9" x1="254.32" y1="114.68" x2="312.87" y2="121.51"/>
    <line class="cls-9" x1="251.44" y1="138.75" x2="306.76" y2="155.63"/>
    <line class="cls-9" x1="244.26" y1="154.55" x2="287.72" y2="180.06"/>
    <path class="cls-10" d="M125.05,123.87c3.19,11.43,17.01,18.11,28.66,16.2,8.3-1.36,15.07-7.01,17.32-14.17"/>
    <path class="cls-10" d="M217.82,123.76c-3.19,11.43-17.01,18.11-28.66,16.2-8.3-1.36-15.07-7.01-17.32-14.17"/>
    <path class="cls-7" d="M190.43,120.28c-6.47,2.51-8.28,7.18-18.5,7.18s-11.67-5.39-18.5-7.18c-3.84-1.01,8.28-7.18,18.5-7.18s22.2,5.75,18.5,7.18Z"/>
    <ellipse class="cls-5" cx="127.21" cy="91.54" rx="9.7" ry="16.52"/>
    <path class="cls-1" d="M127.21,91.54h9.7c0,9.06-4.38,16.52-9.7,16.52s-9.7-7.46-9.7-16.52,4.38-16.52,9.7-16.52c3.11,0,6.04,2.55,7.86,6.85l-7.86,9.68Z"/>
    <polygon class="cls-4" points="296.15 409.74 47.71 409.74 25.19 197.71 318.67 197.71 296.15 409.74"/>
    <path class="cls-6" d="M103.14,178.17c-24.8,0-44.9,9.57-44.9,21.37,0,6.15,5.45,11.69,14.18,15.59,1,.45,2.16.28,3.01-.39.26-.2,3.06-2.9,3.28-3.16,3.95-4.67,2.98-7.05,5.03-6.83,1.65.18,1.72,3.54,4.31,8.98,1.38,2.9,2.76,4.9,3.9,6.38.91.14,1.34.23.89.24,5.76.44,9.41.56,10.3.56.78,0,3.73-.1,8.39-.43,1.1-1.45,2.4-3.39,3.7-6.11,2.59-5.44,2.66-8.8,4.31-8.98,2.05-.22,2.56,4.93,7.54,9.34.47.41.93.79,1.39,1.12.79.57,1.82.72,2.74.37,0,0,0,0,.01,0,10.25-3.92,16.82-9.93,16.82-16.68,0-11.8-20.1-21.37-44.9-21.37Z"/>
    <ellipse class="cls-6" cx="101.88" cy="216.24" rx="10.96" ry="9.34"/>
    <path class="cls-6" d="M241.08,180.68c-24.8,0-44.9,9.57-44.9,21.37,0,6.15,5.45,11.69,14.18,15.59,1,.45,2.16.28,3.01-.39.26-.2,3.06-2.9,3.28-3.16,3.95-4.67,2.98-7.05,5.03-6.83,1.65.18,1.72,3.54,4.31,8.98,1.38,2.9,2.76,4.9,3.9,6.38.91.14,1.34.23.89.24,5.76.44,9.41.56,10.3.56.78,0,3.73-.1,8.39-.43,1.1-1.45,2.4-3.39,3.7-6.11,2.59-5.44,2.66-8.8,4.31-8.98,2.05-.22,2.56,4.93,7.54,9.34.47.41.93.79,1.39,1.12.79.57,1.82.72,2.74.37,0,0,0,0,.01,0,10.25-3.92,16.82-9.93,16.82-16.68,0-11.8-20.1-21.37-44.9-21.37Z"/>
    <ellipse class="cls-6" cx="239.82" cy="218.76" rx="10.96" ry="9.34"/>
    <ellipse class="cls-5" cx="214.59" cy="91.72" rx="9.7" ry="16.52"/>
    <path class="cls-1" d="M214.59,91.72h9.7c0,9.06-4.38,16.52-9.7,16.52s-9.7-7.46-9.7-16.52,4.38-16.52,9.7-16.52c3.11,0,6.04,2.55,7.86,6.85l-7.86,9.68Z"/>
    <g>
      <path class="cls-5" d="M114.36,310.95v12.39c2.69-1.08,5.38-1.62,8.08-1.62,5.87,0,10.74,1.96,14.63,5.87s5.83,8.83,5.83,14.77-2.04,11.02-6.11,15.12c-4.07,4.09-9.8,6.14-17.19,6.14h-26.57v-52.66h21.33ZM114.36,348.5h.48c1.79,0,3.19-.1,4.19-.29,1-.2,1.82-.68,2.45-1.45.63-.77.95-1.98.95-3.64,0-1.54-.41-2.76-1.24-3.66s-1.96-1.35-3.38-1.35c-1.13,0-2.28.32-3.45.97v9.42Z"/>
      <path class="cls-5" d="M198.62,322.06v41.55h-20.43v-7.28h-.14c-2.09,2.65-4.23,4.58-6.42,5.8-2.19,1.22-4.79,1.83-7.8,1.83-4.35,0-7.85-1.29-10.51-3.86-2.66-2.58-3.99-6.19-3.99-10.84v-27.19h20.15v22.4c0,3.77,1.29,5.66,3.87,5.66,1.73,0,3.03-.74,3.9-2.21v-25.85h21.36Z"/>
      <path class="cls-5" d="M253.93,322.13v32.58c0,7.11-1.81,12.31-5.44,15.62-3.62,3.3-9.23,4.95-16.82,4.95-9.89,0-18.09-2-24.61-6v-18.88c5.08,4.95,10.74,7.42,16.98,7.42,5.75,0,8.63-1.77,8.63-5.31,0-.34-.04-.71-.1-1.1-2.37,1.5-5.29,2.24-8.77,2.24-5.15,0-9.25-1.43-12.3-4.28s-4.57-6.67-4.57-11.46c0-3.15.65-5.86,1.95-8.13,1.3-2.27,2.82-3.92,4.55-4.95,1.74-1.04,3.66-1.74,5.78-2.12,2.12-.38,5.71-.57,10.77-.57h23.95ZM232.57,333.8h-.48c-4.76,0-7.14,1.74-7.14,5.21,0,1.43.43,2.56,1.28,3.4.85.84,1.98,1.26,3.38,1.26,1.24,0,2.23-.3,2.97-.9v-8.97Z"/>
    </g>
    <g>
      <path class="cls-5" d="M82.19,294.9h-21.33v-52.66h21.33v52.66Z"/>
      <path class="cls-5" d="M112.79,253.35v41.55h-21.33v-41.55c2.81,1.59,6.45,2.38,10.94,2.38,4.16,0,7.63-.79,10.39-2.38ZM106.64,253.49c-1.66,0-3.08-.6-4.28-1.79-1.2-1.2-1.79-2.62-1.79-4.28s.6-3.07,1.79-4.25c1.2-1.17,2.62-1.76,4.28-1.76s3.07.59,4.24,1.76c1.17,1.17,1.76,2.59,1.76,4.25s-.59,3.08-1.76,4.28-2.59,1.79-4.24,1.79Z"/>
      <path class="cls-5" d="M155.26,253.35v11.66h-8.9v8.9c0,3.01,1.35,4.52,4.04,4.52,1.98,0,3.68-.99,5.11-2.97v16.46c-3.36,2.21-7.44,3.31-12.25,3.31-5.13,0-9.45-1.53-12.96-4.59-3.51-3.06-5.26-7.27-5.26-12.63v-13.01h-8.7l30.02-23.54v11.87h8.9Z"/>
      <path class="cls-5" d="M196.11,253.35v11.66h-8.9v8.9c0,3.01,1.35,4.52,4.04,4.52,1.98,0,3.68-.99,5.11-2.97v16.46c-3.36,2.21-7.44,3.31-12.25,3.31-5.13,0-9.45-1.53-12.96-4.59-3.51-3.06-5.26-7.27-5.26-12.63v-13.01h-8.7l30.02-23.54v11.87h8.9Z"/>
      <path class="cls-5" d="M246.31,279.06v7.28c-4.67,6.12-11.39,9.18-20.15,9.18-7.22,0-13.03-2.01-17.43-6.02s-6.59-9.3-6.59-15.86,2.02-11.32,6.06-15.25c4.04-3.93,9.28-5.9,15.72-5.9,3.29,0,6.34.55,9.14,1.66,2.81,1.1,5.23,2.73,7.28,4.87s3.55,4.62,4.52,7.45c.97,2.83,1.45,6.28,1.45,10.35h-21.78c.78,2.12,2.09,3.77,3.93,4.97s3.95,1.79,6.32,1.79c4.79,0,8.63-1.51,11.53-4.52ZM223.25,269.54h10.04c-.09-2.07-.6-3.69-1.54-4.85-.93-1.16-2.15-1.74-3.64-1.74-1.31,0-2.45.56-3.42,1.67-.97,1.12-1.45,2.76-1.45,4.92Z"/>
      <path class="cls-5" d="M275.28,262.46c2.71-6.3,6.65-9.46,11.8-9.46,2.88,0,5.25.94,7.11,2.83,1.86,1.89,2.8,4.28,2.8,7.18s-.92,5.49-2.74,7.37-4.22,2.81-7.16,2.81c-3.36,0-6.24-1.27-8.63-3.8-2.12,1.79-3.17,5.13-3.17,10.01v15.49h-21.33v-41.55h21.33v9.11Z"/>
    </g>
  </g>
</svg>