<?xml version="1.0" encoding="UTF-8"?>
<svg id="Layer_2" data-name="Layer 2" xmlns="http://www.w3.org/2000/svg" viewBox="0 0 887.13 1017.94">
  <defs>
    <style>
      .cls-1 {
        fill: #000;
      }

      .cls-1, .cls-2, .cls-3, .cls-4, .cls-5, .cls-6, .cls-7 {
        stroke-width: 0px;
      }

      .cls-2 {
        fill: #004a1e;
      }

      .cls-3, .cls-8 {
        fill: #007f5f;
      }

      .cls-4 {
        fill: #002435;
      }

      .cls-5 {
        fill: #fff3df;
      }

      .cls-8, .cls-9 {
        stroke: #006837;
      }

      .cls-8, .cls-9, .cls-10 {
        stroke-miterlimit: 10;
      }

      .cls-6 {
        fill: #005f3f;
      }

      .cls-9 {
        stroke-width: 3px;
      }

      .cls-9, .cls-10 {
        fill: none;
      }

      .cls-10 {
        stroke: #000;
        stroke-width: 6px;
      }

      .cls-7 {
        fill: #ffa994;
      }
    </style>
  </defs>
  <g id="Layer_1-2" data-name="Layer 1">
    <path class="cls-2" d="M209.13,712.72c2.75-28.5,6.95-83.86-14.65-102.65-27.67-24.07-57.87-45.22-89.95-63-12.51-6.93-25.43-13.44-36.29-22.76-10.54-9.05-18.79-20.48-26.06-32.32C-.02,423.14-10.6,336.41,10.64,258.48c4.93-18.11,12.13-36.7,26.77-48.44,14.64-11.75,38.59-13.63,50.96.48,7.11,8.11,9.03,19.43,10.15,30.15,4.37,41.61,1.1,83.71,4.78,125.39s15.41,84.68,44.54,114.73c11.67,12.04,25.67,21.52,39.51,30.99,28.55,19.55,57.26,39.83,79.03,66.72,21.77,26.9,36.1,61.66,31.32,95.93"/>
    <polygon class="cls-6" points="711.77 429.94 244.48 429.94 202.13 800.94 754.13 800.94 711.77 429.94"/>
    <path class="cls-3" d="M396.63,114.44c49.03,51.26-68.13,113-109,113s-196,377-81-120C221.69,42.33,245.76.44,286.63.44s66,68,110,114Z"/>
    <path class="cls-8" d="M560.93,114.5c-49.03,51.26,68.13,113,109,113,40.87,0,196,377,81-120C735.86,42.39,711.79.5,670.93.5c-40.87,0-66,68-110,114Z"/>
    <path class="cls-7" d="M254.63,165.44c18.93,16.34,101.33-3.26,99-37-2-29-49.79-86.63-75-83-29.67,4.27-50.12,97.45-24,120Z"/>
    <path class="cls-7" d="M700.03,164.98c-18.93,16.34-101.33-3.26-99-37,2-29,49.79-86.63,75-83,29.67,4.27,50.12,97.45,24,120Z"/>
    <path class="cls-3" d="M793.63,371.44c-3.5,150.5-113.56,237-307,237s-323-90.46-323-244S287.87,102.44,481.31,102.44s315.89,115.51,312.32,269Z"/>
    <line class="cls-9" x1="236.63" y1="324.44" x2="73.63" y2="343.44"/>
    <line class="cls-9" x1="244.63" y1="391.44" x2="90.63" y2="438.44"/>
    <line class="cls-9" x1="264.63" y1="435.44" x2="143.63" y2="506.44"/>
    <line class="cls-9" x1="707.98" y1="318.36" x2="870.98" y2="337.36"/>
    <line class="cls-9" x1="699.98" y1="385.36" x2="853.98" y2="432.36"/>
    <line class="cls-9" x1="679.98" y1="429.36" x2="800.98" y2="500.36"/>
    <path class="cls-10" d="M348.13,343.94c8.89,31.83,47.35,50.42,79.79,45.1,23.11-3.79,41.94-19.51,48.21-39.46"/>
    <path class="cls-10" d="M606.39,343.63c-8.89,31.83-47.35,50.42-79.79,45.1-23.11-3.79-41.94-19.51-48.21-39.46"/>
    <path class="cls-7" d="M530.13,333.94c-18,7-23.06,20-51.5,20s-32.5-15-51.5-20c-10.68-2.81,23.06-20,51.5-20s61.79,16,51.5,20Z"/>
    <ellipse class="cls-5" cx="354.13" cy="253.94" rx="27" ry="46"/>
    <path class="cls-1" d="M354.13,253.94h27c0,25.23-12.19,46-27,46s-27-20.77-27-46,12.19-46,27-46c8.66,0,16.81,7.1,21.89,19.06l-21.89,26.94Z"/>
    <polygon class="cls-4" points="824.44 1017.94 132.82 1017.94 70.13 646.94 887.13 646.94 824.44 1017.94"/>
    <path class="cls-3" d="M287.13,625.94c-69.04,0-125,26.64-125,59.5,0,17.11,15.18,32.53,39.47,43.39,2.77,1.24,6,.79,8.39-1.09.71-.56,8.52-8.06,9.14-8.79,11-13,8.28-19.61,14-19,4.59.49,4.8,9.85,12,25,3.83,8.06,7.69,13.65,10.86,17.75,2.52.39,3.74.64,2.48.68,16.05,1.22,26.2,1.57,28.66,1.57,2.18,0,10.38-.28,23.35-1.18,3.06-4.03,6.69-9.42,10.3-17.01,7.2-15.15,7.41-24.51,12-25,5.72-.61,7.13,13.73,21,26,1.3,1.15,2.6,2.19,3.88,3.11,2.21,1.6,5.07,2,7.62,1.03.01,0,.03,0,.04-.01,28.54-10.9,46.82-27.65,46.82-46.43,0-32.86-55.96-59.5-125-59.5Z"/>
    <ellipse class="cls-3" cx="283.63" cy="731.94" rx="30.5" ry="26"/>
    <path class="cls-3" d="M671.13,632.94c-69.04,0-125,26.64-125,59.5,0,17.11,15.18,32.53,39.47,43.39,2.77,1.24,6,.79,8.39-1.09.71-.56,8.52-8.06,9.14-8.79,11-13,8.28-19.61,14-19,4.59.49,4.8,9.85,12,25,3.83,8.06,7.69,13.65,10.86,17.75,2.52.39,3.74.64,2.48.68,16.05,1.22,26.2,1.57,28.66,1.57,2.18,0,10.38-.28,23.35-1.18,3.06-4.03,6.69-9.42,10.3-17.01,7.2-15.15,7.41-24.51,12-25,5.72-.61,7.13,13.73,21,26,1.3,1.15,2.6,2.19,3.88,3.11,2.21,1.6,5.07,2,7.62,1.03.01,0,.03,0,.04-.01,28.54-10.9,46.82-27.65,46.82-46.43,0-32.86-55.96-59.5-125-59.5Z"/>
    <ellipse class="cls-3" cx="667.63" cy="738.94" rx="30.5" ry="26"/>
    <ellipse class="cls-5" cx="597.38" cy="254.44" rx="27" ry="46"/>
    <path class="cls-1" d="M597.38,254.44h27c0,25.23-12.19,46-27,46s-27-20.77-27-46,12.19-46,27-46c8.66,0,16.81,7.1,21.89,19.06l-21.89,26.94Z"/>
    <g>
      <path class="cls-5" d="M212.52,863.44h-30.18v-74.51h30.18v74.51Z"/>
      <path class="cls-5" d="M255.81,804.65v58.79h-30.18v-58.79c3.97,2.25,9.13,3.37,15.48,3.37,5.89,0,10.79-1.12,14.7-3.37ZM247.12,804.85c-2.34,0-4.36-.85-6.05-2.54-1.69-1.69-2.54-3.71-2.54-6.05s.85-4.35,2.54-6.01c1.69-1.66,3.71-2.49,6.05-2.49s4.35.83,6.01,2.49,2.49,3.66,2.49,6.01-.83,4.36-2.49,6.05c-1.66,1.69-3.66,2.54-6.01,2.54Z"/>
      <path class="cls-5" d="M315.91,804.65v16.5h-12.6v12.6c0,4.26,1.9,6.4,5.71,6.4,2.8,0,5.21-1.4,7.23-4.2v23.29c-4.75,3.12-10.53,4.69-17.33,4.69-7.26,0-13.37-2.16-18.33-6.49-4.96-4.33-7.45-10.29-7.45-17.87v-18.41h-12.3l42.48-33.3v16.8h12.6Z"/>
      <path class="cls-5" d="M373.71,804.65v16.5h-12.6v12.6c0,4.26,1.9,6.4,5.71,6.4,2.8,0,5.21-1.4,7.23-4.2v23.29c-4.75,3.12-10.53,4.69-17.33,4.69-7.26,0-13.37-2.16-18.33-6.49-4.96-4.33-7.45-10.29-7.45-17.87v-18.41h-12.3l42.48-33.3v16.8h12.6Z"/>
      <path class="cls-5" d="M444.74,841.03v10.3c-6.61,8.66-16.11,12.99-28.52,12.99-10.22,0-18.44-2.84-24.66-8.52-6.22-5.68-9.33-13.16-9.33-22.44s2.86-16.02,8.57-21.58,13.13-8.35,22.24-8.35c4.65,0,8.97.78,12.94,2.34,3.97,1.56,7.41,3.86,10.3,6.88,2.9,3.03,5.03,6.54,6.4,10.55s2.05,8.89,2.05,14.65h-30.81c1.11,3,2.96,5.34,5.57,7.03,2.6,1.69,5.58,2.54,8.94,2.54,6.77,0,12.21-2.13,16.31-6.4ZM412.12,827.55h14.21c-.13-2.93-.85-5.22-2.17-6.86-1.32-1.64-3.04-2.47-5.15-2.47-1.86,0-3.47.79-4.83,2.37-1.37,1.58-2.05,3.9-2.05,6.96Z"/>
      <path class="cls-5" d="M485.74,817.54c3.84-8.92,9.41-13.38,16.7-13.38,4.07,0,7.42,1.33,10.06,4,2.64,2.67,3.96,6.05,3.96,10.16s-1.29,7.77-3.88,10.42c-2.59,2.65-5.97,3.98-10.13,3.98-4.75,0-8.82-1.79-12.21-5.37-3,2.54-4.49,7.26-4.49,14.16v21.92h-30.18v-58.79h30.18v12.89Z"/>
      <path class="cls-5" d="M587.05,788.93v17.53c3.81-1.53,7.62-2.29,11.43-2.29,8.3,0,15.2,2.77,20.7,8.3,5.5,5.53,8.25,12.5,8.25,20.9s-2.88,15.59-8.64,21.39c-5.76,5.79-13.87,8.69-24.32,8.69h-37.6v-74.51h30.18ZM587.05,842.05h.68c2.54,0,4.52-.14,5.93-.42,1.42-.28,2.57-.96,3.47-2.05.89-1.09,1.34-2.81,1.34-5.15,0-2.18-.59-3.91-1.76-5.18s-2.77-1.9-4.79-1.9c-1.6,0-3.22.46-4.88,1.37v13.33Z"/>
      <path class="cls-5" d="M706.27,804.65v58.79h-28.91v-10.3h-.2c-2.96,3.74-5.99,6.48-9.08,8.2-3.09,1.73-6.77,2.59-11.04,2.59-6.15,0-11.11-1.82-14.87-5.47-3.76-3.65-5.64-8.76-5.64-15.33v-38.48h28.52v31.69c0,5.34,1.82,8.01,5.47,8.01,2.44,0,4.28-1.04,5.52-3.12v-36.57h30.22Z"/>
      <path class="cls-5" d="M784.53,804.75v46.09c0,10.06-2.56,17.42-7.69,22.09-5.13,4.67-13.06,7.01-23.8,7.01-14,0-25.6-2.83-34.81-8.5v-26.71c7.19,7,15.2,10.5,24.02,10.5,8.14,0,12.21-2.51,12.21-7.52,0-.49-.05-1.01-.15-1.56-3.35,2.12-7.49,3.17-12.4,3.17-7.29,0-13.09-2.02-17.41-6.05-4.31-4.04-6.47-9.44-6.47-16.21,0-4.46.92-8.29,2.76-11.5,1.84-3.21,3.99-5.54,6.45-7.01,2.46-1.46,5.18-2.47,8.18-3,2.99-.54,8.07-.81,15.23-.81h33.89ZM754.3,821.25h-.68c-6.74,0-10.11,2.46-10.11,7.37,0,2.02.6,3.62,1.81,4.81,1.2,1.19,2.8,1.78,4.79,1.78,1.76,0,3.16-.42,4.2-1.27v-12.7Z"/>
    </g>
  </g>
</svg>