<?xml version="1.0" encoding="UTF-8"?>
<svg id="Layer_2" data-name="Layer 2" xmlns="http://www.w3.org/2000/svg" viewBox="0 0 318.67 291.25">
  <defs>
    <style>
      .cls-1 {
        fill: #000;
      }

      .cls-1, .cls-2, .cls-3, .cls-4, .cls-5, .cls-6, .cls-7 {
        stroke-width: 0px;
      }

      .cls-2 {
        fill: #004a1e;
      }

      .cls-3, .cls-8 {
        fill: #007f5f;
      }

      .cls-4 {
        fill: #002435;
      }

      .cls-5 {
        fill: #fff3df;
      }

      .cls-8, .cls-9 {
        stroke: #006837;
      }

      .cls-8, .cls-9, .cls-10 {
        stroke-miterlimit: 10;
      }

      .cls-6 {
        fill: #005f3f;
      }

      .cls-9 {
        stroke-width: 3px;
      }

      .cls-9, .cls-10 {
        fill: none;
      }

      .cls-10 {
        stroke: #000;
        stroke-width: 6px;
      }

      .cls-7 {
        fill: #ffa994;
      }
    </style>
  </defs>
  <g id="Layer_1-2" data-name="Layer 1">
    <path class="cls-2" d="M75.12,256.34c.99-10.24,2.5-30.12-5.26-36.87-9.94-8.65-20.79-16.24-32.31-22.63-4.49-2.49-9.14-4.83-13.03-8.17-3.79-3.25-6.75-7.36-9.36-11.61C0,152.32-3.81,121.16,3.82,93.17c1.77-6.5,4.36-13.18,9.62-17.4s13.86-4.9,18.3.17c2.55,2.91,3.24,6.98,3.65,10.83,1.57,14.95.4,30.07,1.72,45.04s5.54,30.42,16,41.21c4.19,4.33,9.22,7.73,14.19,11.13,10.26,7.02,20.57,14.31,28.39,23.97,7.82,9.66,12.97,22.15,11.25,34.46"/>
    <polygon class="cls-6" points="255.68 154.76 87.82 154.76 72.61 288.03 270.89 288.03 255.68 154.76"/>
    <path class="cls-3" d="M142.47,41.43c17.61,18.41-24.47,40.59-39.15,40.59s-70.41,135.42-29.1-43.11C79.64,15.53,88.28.48,102.96.48s23.71,24.43,39.51,40.95Z"/>
    <path class="cls-8" d="M201.49,41.45c-17.61,18.41,24.47,40.59,39.15,40.59,14.68,0,70.41,135.42,29.1-43.11-5.41-23.39-14.06-38.44-28.74-38.44-14.68,0-23.71,24.43-39.51,40.95Z"/>
    <path class="cls-7" d="M91.47,59.75c6.8,5.87,36.4-1.17,35.56-13.29-.72-10.42-17.89-31.12-26.94-29.81-10.66,1.53-18,35.01-8.62,43.11Z"/>
    <path class="cls-7" d="M251.46,59.58c-6.8,5.87-36.4-1.17-35.56-13.29.72-10.42,17.89-31.12,26.94-29.81,10.66,1.53,18,35.01,8.62,43.11Z"/>
    <path class="cls-3" d="M285.08,133.75c-1.26,54.06-40.79,85.13-110.28,85.13s-116.03-32.5-116.03-87.65,44.63-94.11,114.11-94.11,113.47,41.49,112.19,96.63Z"/>
    <line class="cls-9" x1="85" y1="116.86" x2="26.45" y2="123.69"/>
    <line class="cls-9" x1="87.87" y1="140.93" x2="32.56" y2="157.81"/>
    <line class="cls-9" x1="95.06" y1="156.74" x2="51.59" y2="182.24"/>
    <line class="cls-9" x1="254.32" y1="114.68" x2="312.87" y2="121.51"/>
    <line class="cls-9" x1="251.44" y1="138.75" x2="306.76" y2="155.63"/>
    <line class="cls-9" x1="244.26" y1="154.55" x2="287.72" y2="180.06"/>
    <path class="cls-10" d="M125.05,123.87c3.19,11.43,17.01,18.11,28.66,16.2,8.3-1.36,15.07-7.01,17.32-14.17"/>
    <path class="cls-10" d="M217.82,123.76c-3.19,11.43-17.01,18.11-28.66,16.2-8.3-1.36-15.07-7.01-17.32-14.17"/>
    <path class="cls-7" d="M190.43,120.28c-6.47,2.51-8.28,7.18-18.5,7.18s-11.67-5.39-18.5-7.18c-3.84-1.01,8.28-7.18,18.5-7.18s22.2,5.75,18.5,7.18Z"/>
    <ellipse class="cls-5" cx="127.21" cy="91.54" rx="9.7" ry="16.52"/>
    <path class="cls-1" d="M127.21,91.54h9.7c0,9.06-4.38,16.52-9.7,16.52s-9.7-7.46-9.7-16.52,4.38-16.52,9.7-16.52c3.11,0,6.04,2.55,7.86,6.85l-7.86,9.68Z"/>
    <polygon class="cls-4" points="296.15 291.25 47.71 291.25 25.19 197.71 318.67 197.71 296.15 291.25"/>
    <path class="cls-6" d="M103.14,178.17c-24.8,0-44.9,9.57-44.9,21.37,0,6.15,5.45,11.69,14.18,15.59,1,.45,2.16.28,3.01-.39.26-.2,3.06-2.9,3.28-3.16,3.95-4.67,2.98-7.05,5.03-6.83,1.65.18,1.72,3.54,4.31,8.98,1.38,2.9,2.76,4.9,3.9,6.38.91.14,1.34.23.89.24,5.76.44,9.41.56,10.3.56.78,0,3.73-.1,8.39-.43,1.1-1.45,2.4-3.39,3.7-6.11,2.59-5.44,2.66-8.8,4.31-8.98,2.05-.22,2.56,4.93,7.54,9.34.47.41.93.79,1.39,1.12.79.57,1.82.72,2.74.37,0,0,0,0,.01,0,10.25-3.92,16.82-9.93,16.82-16.68,0-11.8-20.1-21.37-44.9-21.37Z"/>
    <ellipse class="cls-6" cx="101.88" cy="216.24" rx="10.96" ry="9.34"/>
    <path class="cls-6" d="M241.08,180.68c-24.8,0-44.9,9.57-44.9,21.37,0,6.15,5.45,11.69,14.18,15.59,1,.45,2.16.28,3.01-.39.26-.2,3.06-2.9,3.28-3.16,3.95-4.67,2.98-7.05,5.03-6.83,1.65.18,1.72,3.54,4.31,8.98,1.38,2.9,2.76,4.9,3.9,6.38.91.14,1.34.23.89.24,5.76.44,9.41.56,10.3.56.78,0,3.73-.1,8.39-.43,1.1-1.45,2.4-3.39,3.7-6.11,2.59-5.44,2.66-8.8,4.31-8.98,2.05-.22,2.56,4.93,7.54,9.34.47.41.93.79,1.39,1.12.79.57,1.82.72,2.74.37,0,0,0,0,.01,0,10.25-3.92,16.82-9.93,16.82-16.68,0-11.8-20.1-21.37-44.9-21.37Z"/>
    <ellipse class="cls-6" cx="239.82" cy="218.76" rx="10.96" ry="9.34"/>
    <ellipse class="cls-5" cx="214.59" cy="91.72" rx="9.7" ry="16.52"/>
    <path class="cls-1" d="M214.59,91.72h9.7c0,9.06-4.38,16.52-9.7,16.52s-9.7-7.46-9.7-16.52,4.38-16.52,9.7-16.52c3.11,0,6.04,2.55,7.86,6.85l-7.86,9.68Z"/>
  </g>
</svg>