<?xml version="1.0" encoding="utf-8"?>
<!-- Generator: Adobe Illustrator 28.3.0, SVG Export Plug-In . SVG Version: 6.00 Build 0)  -->
<svg version="1.1" id="Layer_1" xmlns="http://www.w3.org/2000/svg" xmlns:xlink="http://www.w3.org/1999/xlink" x="0px" y="0px"
	 viewBox="0 0 1920 1080" style="enable-background:new 0 0 1920 1080;" xml:space="preserve">
<style type="text/css">
	.st0{fill:#808080;}
	.st1{fill:#4D4D4D;}
	.st2{fill:#8CC63F;}
</style>
<g>
	<path class="st0" d="M757.34,529.9c12.59,40.93,19.79,83.3,27.27,125.47c1.54,8.72,3.24,17.77,8.47,24.91
		c3.67,5.01,8.84,8.72,14.17,11.91c26.39,15.79,59.24,20.4,88.96,12.49c5.81-1.55,11.83-3.77,15.56-8.48
		c2.02-2.55,3.22-5.63,4.27-8.71c9.04-26.42,9.19-54.92,13.51-82.51c4.36-27.85,12.98-54.83,21.57-81.67"/>
	<g>
		<path d="M755.89,530.3c4.72,15.38,8.71,30.98,12.22,46.69c3.53,15.8,6.59,31.69,9.49,47.62c1.44,7.93,2.85,15.86,4.25,23.79
			c1.28,7.23,2.27,14.62,4.54,21.63c2.19,6.76,5.82,12.67,11.27,17.29c5.35,4.53,11.61,8.04,17.91,11.06
			c12.66,6.06,26.36,9.79,40.34,11.1c13.97,1.31,28.31,0.17,41.83-3.64c6.29-1.77,12.63-4.54,16.31-10.23
			c1.95-3.01,3.08-6.51,4.17-9.9c1.19-3.68,2.21-7.4,3.11-11.16c3.59-15.08,5.1-30.55,6.76-45.94c1.71-15.87,3.98-31.56,7.65-47.11
			c3.7-15.69,8.38-31.12,13.24-46.48c1.19-3.76,2.39-7.52,3.6-11.29c0.59-1.84-2.31-2.63-2.89-0.8c-4.86,15.2-9.73,30.4-13.83,45.82
			c-4.03,15.12-7.18,30.41-9.16,45.94c-1.92,15.13-3.03,30.36-5.54,45.42c-1.24,7.47-2.82,14.88-5,22.14
			c-1.05,3.51-2.1,7.15-3.84,10.39c-1.55,2.88-3.78,5.12-6.59,6.79c-5.64,3.34-12.58,4.7-18.96,5.84
			c-6.78,1.21-13.66,1.77-20.55,1.73c-13.77-0.08-27.5-2.62-40.39-7.47c-6.45-2.43-12.67-5.46-18.55-9.04
			c-6-3.66-11.59-8.05-15.04-14.29c-3.39-6.12-4.74-13.14-5.96-19.95c-1.38-7.71-2.72-15.42-4.1-23.13
			c-5.56-31.05-11.5-62.09-20.1-92.47c-1.05-3.72-2.15-7.42-3.28-11.11C758.22,527.67,755.32,528.45,755.89,530.3L755.89,530.3z"/>
	</g>
</g>
<g>
	<path class="st1" d="M759.59,529.86c-0.59-0.45-1.42,0.46-1.2,1.16c0.22,0.7,0.97,1.08,1.65,1.37c12.29,5.24,25.69,7.23,38.93,9.04
		c25.81,3.53,51.87,6.55,77.86,4.84c25.99-1.72,52.14-8.43,73.75-22.98"/>
	<g>
		<path d="M760.35,528.57c-1.17-0.55-2.44-0.25-3.12,0.9c-0.77,1.29-0.19,2.75,0.94,3.59c1.04,0.78,2.41,1.18,3.61,1.65
			c1.71,0.67,3.44,1.29,5.19,1.85c6.43,2.07,13.07,3.46,19.73,4.56c14.16,2.35,28.48,4.1,42.76,5.47
			c27.52,2.63,55.66,2.75,82.54-4.49c13.92-3.75,27.36-9.48,39.35-17.52c1.6-1.07,0.1-3.67-1.51-2.59
			c-20.19,13.54-44.19,20.24-68.23,22.4c-27.13,2.44-54.38-0.62-81.25-4.28c-7.19-0.98-14.38-1.98-21.48-3.51
			c-3.45-0.74-6.87-1.61-10.24-2.66c-1.75-0.55-3.49-1.14-5.21-1.8c-0.88-0.34-1.77-0.67-2.63-1.05c-0.18-0.08-0.4-0.22-0.58-0.27
			c-0.15-0.06-0.29-0.15-0.4-0.27c0.09,0.64-0.23,0.84-0.98,0.61C760.57,531.97,762.1,529.38,760.35,528.57L760.35,528.57z"/>
	</g>
</g>
<g>
	<path class="st2" d="M799.06,539.01c1.85-13.49,7.42-26.46,15.94-37.09c5.3-6.61,12.54-12.66,21-12.74
		c6.96-0.06,13.76,4.4,16.46,10.82c0.55,1.3,1.01,2.75,2.18,3.53c0.81,0.54,1.82,0.65,2.78,0.75c6,0.61,11.99,1.22,17.99,1.83
		c1.75-5.68,4.91-11.77,10.65-13.34c4.84-1.32,9.93,1.09,13.89,4.17c12.16,9.47,18.09,26.29,14.54,41.3"/>
	<g>
		<path d="M800.51,539.41c2.03-14.5,8.27-29.01,18.41-39.71c4.6-4.85,10.67-9.18,17.64-9.01c6.48,0.16,12.29,4.46,14.73,10.37
			c0.68,1.65,1.44,3.26,3.15,4.06c1.9,0.9,4.33,0.8,6.39,1.01c4.86,0.49,9.72,0.99,14.58,1.48c0.66,0.07,1.26-0.52,1.45-1.1
			c1.3-4.16,3.29-8.83,7.16-11.22c4.79-2.96,10.39-0.59,14.51,2.44c7.75,5.71,12.9,14.7,14.75,24.06
			c1.05,5.29,0.99,10.79-0.23,16.05c-0.43,1.88,2.46,2.68,2.89,0.8c2.44-10.58,0.53-21.9-4.95-31.25c-2.72-4.64-6.32-8.77-10.62-12
			c-4.72-3.55-10.97-5.99-16.69-3.33c-5.31,2.47-8.07,8.36-9.72,13.65c0.48-0.37,0.96-0.73,1.45-1.1
			c-4.37-0.45-8.75-0.89-13.12-1.34c-1.13-0.12-2.27-0.23-3.4-0.35c-0.98-0.1-2.22-0.05-3.12-0.49c-1.38-0.66-1.76-2.77-2.38-4.03
			c-2.95-6.02-9.27-10.15-15.91-10.68c-7.09-0.57-13.67,3.19-18.69,7.88c-5.48,5.1-9.86,11.58-13.27,18.21
			c-3.99,7.76-6.68,16.15-7.89,24.79c-0.11,0.81,0.2,1.6,1.05,1.85C799.36,540.66,800.39,540.21,800.51,539.41L800.51,539.41z"/>
	</g>
</g>
<g>
	<g>
		<path d="M892.1,515.45c1.84,1.01,3.59-1.54,2.06-2.92c-0.78-0.71-1.98-0.55-2.7,0.16c-0.67,0.66-0.66,1.63-1.03,2.44
			c-1.45,3.24-2.13,6.82-1.84,10.36c0.13,1.59,0.25,3.65,1.32,4.94c1.19,1.42,3.14,1.15,4.26-0.2c0.99-1.19,1.61-2.77,2.19-4.19
			c0.57-1.39,1.01-2.84,1.25-4.33c0.56-3.45,0.07-6.91-2.32-9.59c-0.54-0.61-1.57-0.55-2.12,0c-4.1,4.08-5.1,10.54-2.57,15.71
			c0.51,1.04,2.04,0.91,2.59,0c2.32-3.85,2.92-8.6,1.61-12.9c-0.34-1.11-2.2-1.61-2.74-0.36c-1.88,4.33-2.36,9.04-1.3,13.64
			c0.28,1.22,2.16,1.5,2.74,0.36c2.18-4.3,2.83-9.13,1.91-13.85c-0.27-1.4-2.05-1.3-2.74-0.36c-2.8,3.83-3.54,9.03-1.95,13.5
			c0.35,0.98,1.72,1.58,2.51,0.66c3.82-4.44,4.45-11.13,1.34-16.14c-0.64-1.03-1.92-0.89-2.59,0c-3.53,4.71-4.62,11.05-2.96,16.69
			c0.54,1.85,3.44,1.06,2.89-0.8c-1.45-4.94-0.42-10.27,2.66-14.38c-0.86,0-1.73,0-2.59,0c2.37,3.81,2.08,9.07-0.87,12.51
			c0.84,0.22,1.67,0.44,2.51,0.66c-1.35-3.8-0.73-7.93,1.64-11.19c-0.91-0.12-1.83-0.24-2.74-0.36c0.76,3.9,0.19,8-1.61,11.54
			c0.91,0.12,1.83,0.24,2.74,0.36c-0.86-3.76-0.54-7.79,1-11.33c-0.91-0.12-1.83-0.24-2.74-0.36c1.09,3.57,0.62,7.39-1.31,10.59
			c0.86,0,1.73,0,2.59,0c-1.93-3.96-1-8.99,2.1-12.07c-0.71,0-1.41,0-2.12,0c3.27,3.67,1.25,9.48-0.78,13.23
			c-0.13,0.25-0.26,0.52-0.43,0.74c-0.07,0.09-0.15,0.18-0.24,0.26c0.12-0.09,0.26-0.09,0.42,0c0.02-0.01-0.29-1.13-0.31-1.23
			c-0.27-1.38-0.35-2.8-0.29-4.21c0.06-1.41,0.3-2.81,0.69-4.17c0.2-0.71,0.44-1.41,0.73-2.09c0.16-0.38,0.38-0.75,0.52-1.15
			c0.08-0.17,0.12-0.35,0.14-0.54c0.13-0.37,0.02-0.4-0.33-0.09c-0.27,0-0.53,0-0.8,0c0.07,0.01,0.14,0.02,0.21,0.03
			c-0.22-0.13-0.44-0.26-0.66-0.39c0.04,0.03,0.07,0.06,0.11,0.09c-0.13-0.22-0.26-0.44-0.39-0.66c-0.01-0.04-0.02-0.08-0.03-0.12
			c0.07-0.25,0.14-0.5,0.2-0.76c0.03-0.02,0.05-0.05,0.08-0.07c0.22-0.13,0.44-0.26,0.66-0.39c-0.04,0.01-0.07,0.02-0.11,0.03
			c0.39,0.05,0.77,0.1,1.16,0.15c-0.04-0.02-0.08-0.04-0.11-0.06C891.92,511.94,890.41,514.53,892.1,515.45L892.1,515.45z"/>
	</g>
</g>
<g>
	<g>
		<path d="M837.95,512.34c0.52-2.01-0.94-3.87-2.97-4c-0.47-0.03-1.1,0.3-1.3,0.74c-1.09,2.54-1.83,5.14-2.19,7.88
			c-0.17,1.3-0.25,2.6-0.23,3.91c0.02,1.23-0.01,2.66,0.42,3.82c0.4,1.08,1.26,2.19,2.53,2.17c1.38-0.02,2.12-1.18,2.73-2.25
			c1.23-2.17,1.92-4.59,2.1-7.07c0.17-2.27-0.03-5.09-1.14-7.13c-0.6-1.1-1.79-1.78-3.05-1.46c-1.1,0.27-1.88,1.28-2.31,2.27
			c-0.55,1.25-0.74,2.69-0.93,4.04c-0.2,1.42-0.32,2.84-0.34,4.27c-0.02,2.03,0.33,5.63,3.17,5.5c1.63-0.07,2.24-1.6,2.66-2.93
			c0.39-1.22,0.69-2.46,0.85-3.74c0.32-2.46-0.1-5.01-1.94-6.8c-0.64-0.62-1.93-0.59-2.36,0.3c-1.84,3.89-2.09,8.44-0.41,12.44
			c0.51,1.22,1.94,1.47,2.74,0.36c2.57-3.57,2.71-8.57,0.49-12.33c-0.54-0.91-2.09-1.04-2.59,0c-1.79,3.74-1.82,7.93-0.15,11.72
			c0.48,1.09,2.04,0.85,2.59,0c2.08-3.22,2.25-7.25,0.72-10.72c-0.48-1.09-2.05-0.86-2.59,0c-1.67,2.66-1.77,5.91-0.5,8.75
			c0.31,0.68,1.45,0.99,2.05,0.54c1.7-1.27,2.56-3.39,1.86-5.47c-0.61-1.82-3.51-1.04-2.89,0.8c0.24,0.7,0.16,1.6-0.49,2.08
			c0.68,0.18,1.37,0.36,2.05,0.54c-0.83-1.85-0.56-4.03,0.5-5.72c-0.86,0-1.73,0-2.59,0c1.1,2.49,0.74,5.43-0.72,7.69
			c0.86,0,1.73,0,2.59,0c-1.21-2.72-1.13-6.01,0.15-8.69c-0.86,0-1.73,0-2.59,0c1.72,2.92,1.47,6.57-0.49,9.31
			c0.91,0.12,1.83,0.24,2.74,0.36c-1.36-3.24-1.41-6.93,0.11-10.13c-0.79,0.1-1.57,0.2-2.36,0.3c2.06,2.01,1.02,5.47,0.25,7.83
			c-0.05,0.16-0.16,0.36-0.18,0.52c-0.04,0.31-0.11-0.02,0.04,0.07c-1.17-0.71,0.6-0.02,0.6-0.02c0.06-0.14,0.16,0.78-0.06-0.13
			c-0.07-0.27-0.23-0.51-0.26-0.8c-0.04-0.35-0.02-0.8-0.02-1.19c-0.01-2.06,0.19-4.12,0.61-6.13c0.08-0.39,0.15-0.79,0.28-1.17
			c0.09-0.25,0.27-0.46,0.36-0.7c0.08-0.21,0.26-0.18-0.17-0.12c-0.3,0.04-0.11-0.33-0.06,0.08c0.01,0.07,0.14,0.39,0.15,0.44
			c0.5,1.56,0.68,3.17,0.6,4.8c-0.08,1.64-0.47,3.32-1.15,4.82c-0.09,0.2-1.14,1.9-1.09,1.97c-0.1-0.17,0.99-0.09,0.88,0.08
			c-0.02,0.03-0.1-0.1-0.1-0.14c-0.04-0.3-0.19-0.6-0.22-0.93c-0.38-4.2,0.23-8.49,1.9-12.37c-0.43,0.25-0.86,0.5-1.3,0.74
			c0.08,0,0.07,0.23,0.08,0.2C834.58,513.41,837.47,514.21,837.95,512.34L837.95,512.34z"/>
	</g>
</g>
<g>
	<g>
		<path d="M855.07,522.88c0.18,1.74,0.62,3.37,1.39,4.95c0.73,1.5,1.78,3.02,3.12,4.02c0.79,0.59,1.72,0.87,2.71,0.68
			c0.91-0.17,1.65-0.81,2.25-1.48c1.11-1.24,2.09-2.63,2.86-4.12c0.87-1.69,1.52-3.49,1.88-5.35c0.16-0.79-0.23-1.62-1.05-1.85
			c-0.74-0.2-1.69,0.25-1.85,1.05c-0.32,1.63-0.83,3.18-1.58,4.64c-0.73,1.41-1.66,3.01-2.9,4.03c-0.01,0.01-0.28,0.18-0.16,0.13
			c-0.27,0.12-0.17,0.02-0.07,0.03c-0.25-0.04-0.47-0.27-0.69-0.49c-0.56-0.56-0.99-1.15-1.41-1.83c-0.81-1.33-1.36-2.93-1.51-4.41
			c-0.08-0.81-0.63-1.5-1.5-1.5C855.83,521.38,854.99,522.07,855.07,522.88L855.07,522.88z"/>
	</g>
</g>
<g>
	<path class="st1" d="M757.92,529.63c5.83-1.93,11.65-3.87,17.48-5.8c9.51-3.16,19.13-6.34,29.11-7.21"/>
	<g>
		<path d="M758.32,531.08c7.72-2.56,15.42-5.18,23.16-7.66c7.51-2.41,15.16-4.57,23.04-5.29c1.91-0.17,1.93-3.18,0-3
			c-8,0.73-15.75,2.81-23.38,5.25c-7.9,2.52-15.74,5.2-23.61,7.81C755.7,528.79,756.48,531.69,758.32,531.08L758.32,531.08z"/>
	</g>
</g>
<g>
	<path class="st1" d="M912.94,513.05c10.39,2.01,20.71,4.42,31.02,6.82c2.36,0.55,4.75,1.11,6.87,2.28"/>
	<g>
		<path d="M912.54,514.5c6.41,1.25,12.8,2.63,19.17,4.08c3.15,0.71,6.29,1.44,9.43,2.17c3.01,0.7,6.17,1.23,8.93,2.69
			c1.71,0.9,3.22-1.69,1.51-2.59c-2.72-1.43-5.71-2.07-8.68-2.76c-3.3-0.77-6.61-1.54-9.91-2.29c-6.53-1.49-13.08-2.91-19.65-4.19
			C911.45,511.24,910.64,514.13,912.54,514.5L912.54,514.5z"/>
	</g>
</g>
<g>
	<g>
		<path d="M782.5,540.75c8.22,19.43,15.28,39.36,21.15,59.63c5.86,20.24,10.53,40.83,13.98,61.63c1.94,11.68,3.47,23.43,4.63,35.22
			c0.19,1.9,3.19,1.92,3,0c-2.07-21.19-5.38-42.25-9.93-63.05c-4.56-20.82-10.35-41.36-17.35-61.49
			c-3.92-11.29-8.23-22.44-12.89-33.45c-0.32-0.75-1.41-0.9-2.05-0.54C782.26,539.14,782.18,540.01,782.5,540.75L782.5,540.75z"/>
	</g>
</g>
<g>
	<g>
		<path d="M923.18,536.24c-9.24,20.43-13.5,42.54-16.35,64.65c-3,23.31-4.48,46.85-9.2,69.92c-2.34,11.42-5.18,23.5-12.69,32.76
			c-1.21,1.49,0.9,3.62,2.12,2.12c6.6-8.14,9.86-18.18,12.19-28.25c2.66-11.5,4.4-23.2,5.84-34.91c2.82-22.93,4.39-46.07,9.22-68.71
			c2.63-12.35,6.23-24.54,11.44-36.06C926.56,536.01,923.98,534.48,923.18,536.24L923.18,536.24z"/>
	</g>
</g>
<g>
	<g>
		<path d="M851.75,548.72c2.18,20.37,3.8,40.79,4.83,61.25c1.02,20.29,1.48,40.61,1.36,60.93c-0.07,11.56-0.32,23.12-0.75,34.68
			c-0.07,1.93,2.93,1.93,3,0c0.77-20.47,0.96-40.96,0.57-61.43c-0.39-20.31-1.34-40.62-2.86-60.87
			c-0.87-11.53-1.92-23.05-3.15-34.54C854.54,546.82,851.54,546.8,851.75,548.72L851.75,548.72z"/>
	</g>
</g>
<g>
	<g>
		<path d="M767.6,575.97c2.77,4.16,7.7,5.86,12.18,7.52c5.24,1.95,10.59,3.57,16.02,4.9c11.08,2.71,22.45,4.23,33.83,4.95
			c12,0.76,24.03,0.61,36.04,0.09c11.58-0.51,23.21-1.15,34.76-2.2c11.28-1.03,22.87-3.06,32.4-9.57c1.58-1.08,0.09-3.68-1.51-2.59
			c-8.2,5.6-18.02,7.77-27.75,8.85c-11,1.21-22.12,1.72-33.17,2.29c-22.65,1.16-45.58,1.22-67.89-3.37
			c-6.08-1.25-12.09-2.84-17.98-4.83c-2.82-0.95-5.66-1.95-8.39-3.16c-2.27-1.01-4.54-2.27-5.95-4.39
			C769.12,572.86,766.52,574.36,767.6,575.97L767.6,575.97z"/>
	</g>
</g>
<g>
	<g>
		<path d="M780.29,634.19c0.78,4.54,6.66,6.27,10.28,7.82c4.8,2.07,9.69,3.93,14.65,5.57c9.96,3.29,20.21,5.7,30.59,7.21
			c20.6,2.99,41.67,2.51,62.08-1.65c10.05-2.05,20.59-5.35,27.59-13.29c1.27-1.44-0.84-3.57-2.12-2.12
			c-5.96,6.76-14.64,9.88-23.2,11.86c-9.59,2.22-19.43,3.45-29.25,3.93c-20.02,0.97-40.17-1.44-59.4-7.11
			c-5.31-1.57-10.55-3.38-15.7-5.44c-2.62-1.05-5.22-2.17-7.78-3.35c-1.92-0.89-4.45-1.89-4.85-4.23
			C782.85,631.5,779.96,632.3,780.29,634.19L780.29,634.19z"/>
	</g>
</g>
</svg>
